<?xml version="1.0" encoding="UTF-8" standalone="no"?>
<!-- Created with Inkscape (http://www.inkscape.org/) -->

<svg
   xmlns:dc="http://purl.org/dc/elements/1.1/"
   xmlns:cc="http://creativecommons.org/ns#"
   xmlns:rdf="http://www.w3.org/1999/02/22-rdf-syntax-ns#"
   xmlns:svg="http://www.w3.org/2000/svg"
   xmlns="http://www.w3.org/2000/svg"
   xmlns:sodipodi="http://sodipodi.sourceforge.net/DTD/sodipodi-0.dtd"
   xmlns:inkscape="http://www.inkscape.org/namespaces/inkscape"
   width="210mm"
   height="297mm"
   id="svg2"
   version="1.1"
   inkscape:version="0.48.5 r10040"
   sodipodi:docname="Nouveau document 1">
  <defs
     id="defs4" />
  <sodipodi:namedview
     id="base"
     pagecolor="#ffffff"
     bordercolor="#666666"
     borderopacity="1.0"
     inkscape:pageopacity="0.0"
     inkscape:pageshadow="2"
     inkscape:zoom="0.35"
     inkscape:cx="489.28571"
     inkscape:cy="634.28571"
     inkscape:document-units="px"
     inkscape:current-layer="layer1"
     showgrid="false"
     inkscape:window-width="1067"
     inkscape:window-height="835"
     inkscape:window-x="0"
     inkscape:window-y="0"
     inkscape:window-maximized="0" />
  <metadata
     id="metadata7">
    <rdf:RDF>
      <cc:Work
         rdf:about="">
        <dc:format>image/svg+xml</dc:format>
        <dc:type
           rdf:resource="http://purl.org/dc/dcmitype/StillImage" />
        <dc:title></dc:title>
      </cc:Work>
    </rdf:RDF>
  </metadata>
  <g
     inkscape:label="Calque 1"
     inkscape:groupmode="layer"
     id="layer1">
    <path
       style="fill:none;stroke:#000000;stroke-width:1px;stroke-linecap:butt;stroke-linejoin:miter;stroke-opacity:1"
       d="m 85.714286,329.50504 c 4.761904,0.95238 9.822154,0.94419 14.285714,2.85714 2.47594,1.06112 3.80952,3.80953 5.71429,5.71429 5.31498,5.31498 7.82432,7.07721 11.42857,14.28571 1.34687,2.69374 1.30764,5.98893 2.85714,8.57143 0.0935,0.1559 11.12262,11.06143 11.42857,11.42857 3.0485,3.6582 5.47242,7.81307 8.57143,11.42857 5.67294,6.61844 9.73617,10.05333 17.14286,14.28572 3.698,2.11314 7.73057,3.60114 11.42857,5.71428 2.98142,1.70367 5.62692,3.94758 8.57143,5.71429 3.65221,2.19133 8.02123,3.15878 11.42857,5.71429 2.15499,1.61624 3.55929,4.09804 5.71428,5.71428 7.23515,5.42636 3.74821,1.32107 11.42858,2.85714 2.9532,0.59065 5.77514,1.73863 8.57142,2.85715 1.97728,0.79091 3.62606,2.43949 5.71429,2.85714 4.66943,0.93389 9.66599,-1.15493 14.28571,0 2.06601,0.5165 3.69398,2.18371 5.71429,2.85714 1.80702,0.60234 4.01061,-0.85183 5.71429,0 1.20467,0.60234 1.65246,2.25481 2.85714,2.85715 1.51078,0.75539 10.03659,-0.348 11.42857,0 7.81587,1.95396 4.59774,4.01754 11.42857,8.57142 0.79243,0.52829 1.95364,-0.30117 2.85714,0 2.02031,0.67344 3.69398,2.18371 5.71429,2.85715 1.96524,0.65508 6.88566,-0.84289 8.57143,0 1.20468,0.60234 1.57939,2.43122 2.85714,2.85714 1.57508,0.52503 14.71815,0 17.14286,0 2.87729,0 15.56281,0.52668 17.14286,0 1.27775,-0.42592 1.73647,-2.11003 2.85714,-2.85714 4.16366,-2.77578 5.95104,-1.78371 8.57143,-5.71429 1.18128,-1.77192 1.57939,-4.01061 2.85714,-5.71428 1.61624,-2.155 3.80952,-3.80953 5.71429,-5.71429 0.95238,-0.95238 2.2548,-1.65247 2.85714,-2.85714 0.42592,-0.85184 -0.42592,-2.00531 0,-2.85715 0.60234,-1.20467 2.2548,-1.65246 2.85714,-2.85714 0.42592,-0.85183 -0.67343,-2.18371 0,-2.85714 0.67344,-0.67344 2.18371,0.67343 2.85714,0 0.67344,-0.67344 -0.67343,-2.18371 0,-2.85714 1.50585,-1.50585 4.53301,-1.08522 5.71429,-2.85715 4.08847,-6.1327 -4.23785,-5.02393 2.85714,-8.57143 0.85184,-0.42591 2.00531,0.42592 2.85715,0 1.20467,-0.60233 1.57939,-2.43122 2.85714,-2.85714 1.80701,-0.60234 3.80952,0 5.71428,0 1.90477,0 3.80953,0 5.71429,0 5.71429,0 11.42857,0 17.14286,0 7.61904,0 15.23809,0 22.85714,0 2.85714,0 5.79959,-0.69296 8.57143,0 1.30665,0.32667 1.65246,2.25481 2.85714,2.85714 1.70367,0.85184 3.90727,-0.60233 5.71429,0 3.78401,1.26134 9.11156,5.09592 11.42857,8.57143 3.70898,5.56347 2.85714,5.24341 2.85714,11.42857 0,0.95238 -0.30117,1.95364 0,2.85715 0.67344,2.0203 2.34064,3.64828 2.85714,5.71428 0.46198,1.84789 0,3.80953 0,5.71429 0,2.85714 0,5.71428 0,8.57143 0,4.7619 0.78286,9.5886 0,14.28571 -0.49511,2.97072 -1.90476,5.71429 -2.85714,8.57143 -0.95238,2.85714 -1.30764,5.98892 -2.85714,8.57143 -1.38592,2.30986 -4.09804,3.55929 -5.71429,5.71428 -1.27775,1.70367 -1.57939,4.01062 -2.85714,5.71429 -3.67019,4.89359 -9.17391,8.36149 -14.28571,11.42857 -1.82611,1.09567 -3.94237,1.67586 -5.71429,2.85714 -1.12066,0.74711 -1.65247,2.25481 -2.85714,2.85715 -2.69374,1.34687 -5.77514,1.73863 -8.57143,2.85714 -1.97727,0.79091 -3.64828,2.34064 -5.71429,2.85714 -1.84789,0.46198 -3.84651,-0.37355 -5.71428,0 -2.95321,0.59064 -5.77514,1.73863 -8.57143,2.85715 -1.97727,0.7909 -3.62605,2.43949 -5.71429,2.85714 -2.80166,0.56033 -5.71428,0 -8.57143,0 -3.80952,0 -7.61904,0 -11.42857,0 -13.58231,0 -26.75892,1.11518 -40,-2.85714 -13.02994,-3.90899 -14.02537,-6.23351 -25.71428,-11.42858 -4.68669,-2.08297 -9.69844,-3.42064 -14.28572,-5.71428 -9.87235,-4.93618 -6.3706,-6.77605 -17.14285,-8.57143 -2.81827,-0.46971 -5.75316,0.46971 -8.57143,0 -2.97072,-0.49512 -5.60072,-2.36202 -8.57143,-2.85714 -2.81827,-0.46971 -5.71429,0 -8.57143,0 -5.71429,0 -11.42857,0 -17.14286,0 -4.84577,0 -24.17188,-0.62851 -28.57143,0 -5.96284,0.85183 -11.18,4.86245 -17.14285,5.71428 -28.93994,4.13428 1.74281,-5.61711 -17.14286,5.71429 -2.58251,1.5495 -6.44184,0.72755 -8.57143,2.85714 -3.01169,3.01169 -3.27181,7.93932 -5.71428,11.42857 -32.29644,38.75573 -5.42182,2.27221 -17.14286,25.71429 -1.53567,3.07133 -3.56917,5.89003 -5.71429,8.57143 -5.31567,6.64458 -6.01521,3.75994 -8.57143,11.42857 -0.30117,0.90351 0,1.90476 0,2.85714 0,1.90476 0,3.80952 0,5.71429 0,0.95238 -0.9035,2.55597 0,2.85714 2.71053,0.90351 5.73177,-0.31552 8.57143,0 5.75768,0.63974 11.35372,2.64273 17.14286,2.85714 19.9863,0.74024 40,0 60,0 11.42857,0 22.86893,-0.51894 34.28571,0 103.16442,4.68929 -58.09548,-0.27652 62.85715,11.42857 18.01109,1.74301 36.19047,0 54.28571,0 6.66667,0 13.42404,-1.09599 20,0 10.71107,1.78518 20.85842,6.08434 31.42857,8.57143 5.63911,1.32685 11.52272,1.45211 17.14286,2.85715 5.84354,1.46088 11.3735,3.98347 17.14286,5.71428 3.76116,1.12835 7.70331,1.61539 11.42857,2.85714 2.0203,0.67344 3.64828,2.34065 5.71428,2.85715 1.84789,0.46197 3.80953,0 5.71429,0 1.90476,0.95238 3.69398,2.1837 5.71429,2.85714 0.9035,0.30117 1.90476,0 2.85714,0 1.90476,0 3.80952,0 5.71428,0 8.57143,0 17.14286,0 25.71429,0 2.39254,0 12.11295,-0.54319 14.28571,0 2.06601,0.5165 3.69398,2.18371 5.71429,2.85714 1.80702,0.60234 4.36742,-1.34687 5.71429,0 0.67343,0.67344 -0.67344,2.18371 0,2.85715 1.34687,1.34687 3.90727,-0.60234 5.71428,0 9.84918,3.28306 2.11647,2.85714 8.57143,2.85714"
       id="path2985"
       inkscape:connector-curvature="0" />
  </g>
</svg>
